<svg width="1440" height="5463" viewBox="0 0 1440 5463" fill="none" xmlns="http://www.w3.org/2000/svg">
<g clip-path="url(#clip0_1_2)">
<path d="M928.939 1388.85C1138.96 1335.97 1265.45 1126.34 1211.46 920.624C1157.47 714.912 943.446 591.019 733.425 643.901C523.405 696.783 396.916 906.414 450.906 1112.13C504.895 1317.84 718.918 1441.73 928.939 1388.85Z" fill="#16FCD2"/>
<path d="M549.243 3042.67C666.782 3013.07 737.572 2895.75 707.356 2780.62C677.141 2665.49 557.362 2596.16 439.823 2625.75C322.284 2655.35 251.495 2772.67 281.71 2887.8C311.926 3002.92 431.704 3072.26 549.243 3042.67Z" fill="#F6E016"/>
<path d="M767.806 2796.72C863.301 2772.67 920.814 2677.36 896.265 2583.82C871.717 2490.29 774.403 2433.95 678.908 2458C583.414 2482.04 525.901 2577.36 550.449 2670.9C574.998 2764.43 672.312 2820.76 767.806 2796.72Z" fill="#16FCD2"/>
<path d="M1087.24 3680.31C1204.78 3650.71 1275.57 3533.39 1245.36 3418.26C1215.14 3303.13 1095.36 3233.8 977.823 3263.39C860.284 3292.99 789.495 3410.31 819.71 3525.44C849.926 3640.56 969.704 3709.9 1087.24 3680.31Z" fill="#FC165B"/>
<path d="M1087.24 3680.5C1204.78 3650.91 1275.57 3533.58 1245.36 3418.46C1215.14 3303.33 1095.36 3233.99 977.823 3263.59C860.284 3293.18 789.495 3410.5 819.71 3525.63C849.926 3640.76 969.704 3710.1 1087.24 3680.5Z" fill="#ED1F24"/>
<path d="M1305.81 3434.37C1401.3 3410.32 1458.82 3315.01 1434.27 3221.47C1409.72 3127.94 1312.41 3071.6 1216.91 3095.65C1121.42 3119.69 1063.9 3215.01 1088.45 3308.55C1113 3402.08 1210.31 3458.41 1305.81 3434.37Z" fill="#2C48A8"/>
<path d="M384.79 1583.7C594.811 1530.82 721.299 1321.19 667.31 1115.47C613.32 909.762 399.297 785.869 189.277 838.751C-20.7444 891.633 -147.233 1101.26 -93.2432 1306.98C-39.2537 1512.69 174.769 1636.58 384.79 1583.7Z" fill="#F6E016"/>
<path d="M1251.23 1307.7C1461.25 1254.82 1587.74 1045.19 1533.75 839.474C1479.76 633.762 1265.73 509.869 1055.71 562.751C845.693 615.633 719.204 825.265 773.194 1030.98C827.183 1236.69 1041.21 1360.58 1251.23 1307.7Z" fill="#ED1F24"/>
<path d="M1112.96 5408.5C1230.5 5378.9 1301.29 5261.58 1271.07 5146.45C1240.86 5031.32 1121.08 4961.99 1003.54 4991.58C886.001 5021.18 815.211 5138.5 845.427 5253.63C875.642 5368.76 995.421 5438.09 1112.96 5408.5Z" fill="#16FCD2"/>
<path d="M385.806 5292.26C481.3 5268.22 538.814 5172.9 514.265 5079.36C489.717 4985.83 392.402 4929.49 296.908 4953.54C201.414 4977.58 143.9 5072.9 168.449 5166.44C192.997 5259.97 290.311 5316.3 385.806 5292.26Z" fill="#2C48A8"/>
</g>
<defs>
<clipPath id="clip0_1_2">
<rect width="1440" height="5463" fill="white"/>
</clipPath>
</defs>
</svg>
