<svg width="1440" height="5463" viewBox="0 0 1440 5463" fill="none" xmlns="http://www.w3.org/2000/svg">
<g clip-path="url(#clip0_1_2)">
<mask id="mask0_1_2" style="mask-type:luminance" maskUnits="userSpaceOnUse" x="0" y="-44" width="1440" height="5463">
<path d="M1440 -44H0V5419H1440V-44Z" fill="white"/>
</mask>
<g mask="url(#mask0_1_2)">
<path d="M700.682 1142.75C856.833 1102.68 950.878 943.829 910.737 787.942C870.595 632.058 711.468 538.175 555.317 578.247C399.166 618.32 305.122 777.174 345.263 933.061C385.404 1088.94 544.531 1182.82 700.682 1142.75Z" fill="#47FFDE"/>
<path d="M549.243 2998.67C666.782 2969.07 737.572 2851.75 707.356 2736.62C677.141 2621.49 557.362 2552.16 439.823 2581.75C322.284 2611.35 251.495 2728.67 281.71 2843.8C311.926 2958.92 431.704 3028.26 549.243 2998.67Z" fill="#FFBF1B"/>
<path d="M626.505 4235.75C744.044 4206.15 814.835 4088.83 784.619 3973.7C754.404 3858.57 634.624 3789.24 517.085 3818.83C399.546 3848.43 328.757 3965.75 358.972 4080.88C389.188 4196 508.966 4265.34 626.505 4235.75Z" fill="#FFBF1B"/>
<path d="M665.505 5411.75C783.044 5382.15 853.835 5264.83 823.619 5149.7C793.404 5034.57 673.624 4965.24 556.085 4994.83C438.546 5024.43 367.757 5141.75 397.972 5256.88C428.188 5372 547.966 5441.34 665.505 5411.75Z" fill="#FFBF1B"/>
<path d="M767.806 2752.72C863.301 2728.67 920.814 2633.36 896.265 2539.82C871.717 2446.29 774.403 2389.95 678.908 2414C583.414 2438.04 525.901 2533.36 550.449 2626.9C574.998 2720.43 672.312 2776.76 767.806 2752.72Z" fill="#47FFDE"/>
<path d="M920.502 3641.75C1038.04 3612.15 1108.83 3494.83 1078.62 3379.7C1048.4 3264.57 928.622 3195.24 811.085 3224.83C693.546 3254.43 622.757 3371.75 652.972 3486.88C683.188 3602 802.966 3671.34 920.502 3641.75Z" fill="#DE0E13"/>
<path d="M339.335 4705.27C539.873 4654.4 660.65 4452.77 609.108 4254.9C557.549 4057.03 353.189 3937.88 152.656 3988.73C-47.8798 4039.61 -168.655 4241.24 -117.104 4439.1C-65.5518 4636.95 138.804 4756.12 339.335 4705.27Z" fill="#DE0E13"/>
<path d="M494.029 5114.4C540.287 5103.13 568.146 5058.44 556.257 5014.59C544.364 4970.74 497.225 4944.33 450.969 4955.6C404.712 4966.87 376.853 5011.56 388.744 5055.41C400.635 5099.26 447.774 5125.67 494.029 5114.4Z" fill="#DE0E13"/>
<path d="M274.502 2238.74C392.042 2209.15 462.832 2091.82 432.622 1976.7C402.402 1861.57 282.622 1792.23 165.085 1821.83C47.5465 1851.42 -23.2425 1968.74 6.9725 2083.87C37.1885 2199 156.966 2268.34 274.502 2238.74Z" fill="#DE0E13"/>
<path d="M1034.03 3351.27C1129.52 3327.22 1187.04 3231.91 1162.49 3138.37C1137.94 3044.84 1040.63 2988.5 945.125 3012.55C849.635 3036.59 792.115 3131.91 816.665 3225.45C841.215 3318.98 938.525 3375.31 1034.03 3351.27Z" fill="#2A449B"/>
<path d="M914.884 924.307C1033.87 895.301 1105.53 780.317 1074.94 667.479C1044.35 554.644 923.098 486.687 804.114 515.694C685.132 544.7 613.471 659.686 644.058 772.523C674.645 885.357 795.899 953.312 914.884 924.307Z" fill="#DE0E13"/>
<path d="M1161.51 5475.75C1279.05 5446.15 1349.84 5328.83 1319.62 5213.7C1289.41 5098.57 1169.63 5029.24 1052.09 5058.83C934.547 5088.43 863.757 5205.75 893.973 5320.88C924.188 5436.01 1043.97 5505.34 1161.51 5475.75Z" fill="#16FCD2"/>
<path d="M141.909 5296.64C248.059 5269.08 311.991 5159.82 284.703 5052.59C257.416 4945.38 149.241 4880.79 43.0909 4908.36C-63.0593 4935.92 -126.991 5045.19 -99.7028 5152.41C-72.4155 5259.63 35.7578 5324.2 141.909 5296.64Z" fill="#2C48A8"/>
<path d="M1031.51 1968.75C1149.04 1939.15 1219.83 1821.83 1189.62 1706.7C1159.4 1591.57 1039.62 1522.24 922.085 1551.83C804.546 1581.43 733.757 1698.75 763.972 1813.88C794.188 1929 913.966 1998.34 1031.51 1968.75Z" fill="#FFBF1B"/>
<path d="M324.492 1200.15C534.513 1147.27 661.001 937.642 607.012 731.922C553.022 526.214 338.999 402.321 128.979 455.203C-81.0423 508.085 -207.531 717.712 -153.541 923.432C-99.5516 1129.14 114.471 1253.03 324.492 1200.15Z" fill="#FFBF1B"/>
</g>
</g>
<defs>
<clipPath id="clip0_1_2">
<rect width="1440" height="5463" fill="white"/>
</clipPath>
</defs>
</svg>
