<svg width="1440" height="5463" viewBox="0 0 1440 5463" fill="none" xmlns="http://www.w3.org/2000/svg">
<g clip-path="url(#clip0_1_2)">
<mask id="mask0_1_2" style="mask-type:luminance" maskUnits="userSpaceOnUse" x="0" y="0" width="1440" height="5463">
<path d="M1440 0H0V5463H1440V0Z" fill="white"/>
</mask>
<g mask="url(#mask0_1_2)">
<path d="M973.492 1298.15C1183.51 1245.27 1310 1035.64 1256.01 829.926C1202.02 624.214 987.999 500.321 777.978 553.203C567.958 606.085 441.469 815.716 495.459 1021.43C549.448 1227.14 763.471 1351.03 973.492 1298.15Z" fill="#16FCD2"/>
<path d="M751.505 2052.75C869.044 2023.15 939.835 1905.83 909.619 1790.7C879.404 1675.57 759.624 1606.24 642.085 1635.83C524.546 1665.43 453.757 1782.75 483.972 1897.88C514.188 2013 633.966 2082.34 751.505 2052.75Z" fill="#F6E016"/>
<path d="M518.022 1877.27C613.517 1853.22 671.03 1757.91 646.481 1664.37C621.933 1570.84 524.619 1514.5 429.124 1538.55C333.63 1562.59 276.117 1657.91 300.665 1751.45C325.214 1844.98 422.528 1901.31 518.022 1877.27Z" fill="#16FCD2"/>
<path d="M1087.24 3680.31C1204.78 3650.71 1275.57 3533.39 1245.36 3418.26C1215.14 3303.13 1095.36 3233.8 977.823 3263.39C860.284 3292.99 789.495 3410.31 819.71 3525.44C849.926 3640.56 969.704 3709.9 1087.24 3680.31Z" fill="#FC165B"/>
<path d="M1078.5 1940.74C1196.04 1911.15 1266.83 1793.82 1236.62 1678.7C1206.4 1563.57 1086.62 1494.23 969.085 1523.83C851.546 1553.42 780.757 1670.74 810.972 1785.87C841.188 1901 960.966 1970.34 1078.5 1940.74Z" fill="#ED1F24"/>
<path d="M628.025 3015.27C723.515 2991.22 781.035 2895.91 756.485 2802.37C731.935 2708.84 634.625 2652.5 539.125 2676.55C443.635 2700.59 386.115 2795.91 410.665 2889.45C435.215 2982.98 532.525 3039.31 628.025 3015.27Z" fill="#2C48A8"/>
<path d="M425.492 1198.15C635.513 1145.27 762.001 935.642 708.012 729.922C654.022 524.214 439.999 400.321 229.979 453.203C19.9577 506.085 -106.531 715.712 -52.5411 921.432C1.44841 1127.14 215.471 1251.03 425.492 1198.15Z" fill="#F6E016"/>
<path d="M1261.49 853.152C1471.51 800.272 1598.01 590.642 1544.02 384.926C1490.03 179.214 1275.99 55.3213 1065.97 108.203C855.958 161.085 729.469 370.717 783.459 576.432C837.448 782.142 1051.47 906.032 1261.49 853.152Z" fill="#ED1F24"/>
<path d="M1112.96 5408.5C1230.5 5378.9 1301.29 5261.58 1271.07 5146.45C1240.86 5031.32 1121.08 4961.99 1003.54 4991.58C886.001 5021.18 815.211 5138.5 845.427 5253.63C875.642 5368.76 995.421 5438.09 1112.96 5408.5Z" fill="#16FCD2"/>
<path d="M385.806 5292.26C481.3 5268.22 538.814 5172.9 514.265 5079.36C489.717 4985.83 392.402 4929.49 296.908 4953.54C201.414 4977.58 143.9 5072.9 168.449 5166.44C192.997 5259.97 290.311 5316.3 385.806 5292.26Z" fill="#2C48A8"/>
</g>
</g>
<defs>
<clipPath id="clip0_1_2">
<rect width="1440" height="5463" fill="white"/>
</clipPath>
</defs>
</svg>
